<svg width="52" height="36" viewBox="0 0 52 36" fill="none" xmlns="http://www.w3.org/2000/svg">
<path fill-rule="evenodd" clip-rule="evenodd" d="M3.9 0C2.86566 0 1.87368 0.406377 1.14228 1.12973C0.410892 1.85309 0 2.83416 0 3.85714L0 32.1429C0 33.1658 0.410892 34.1469 1.14228 34.8703C1.87368 35.5936 2.86566 36 3.9 36H48.1C49.1343 36 50.1263 35.5936 50.8577 34.8703C51.5891 34.1469 52 33.1658 52 32.1429V3.85714C52 2.83416 51.5891 1.85309 50.8577 1.12973C50.1263 0.406377 49.1343 0 48.1 0H3.9ZM30.16 7.71429C29.6083 7.71429 29.0793 7.93102 28.6892 8.31681C28.2991 8.7026 28.08 9.22584 28.08 9.77143C28.08 10.317 28.2991 10.8403 28.6892 11.226C29.0793 11.6118 29.6083 11.8286 30.16 11.8286H44.72C45.2717 11.8286 45.8007 11.6118 46.1908 11.226C46.5809 10.8403 46.8 10.317 46.8 9.77143C46.8 9.22584 46.5809 8.7026 46.1908 8.31681C45.8007 7.93102 45.2717 7.71429 44.72 7.71429H30.16ZM30.16 15.9429C29.6083 15.9429 29.0793 16.1596 28.6892 16.5454C28.2991 16.9312 28.08 17.4544 28.08 18C28.08 18.5456 28.2991 19.0688 28.6892 19.4546C29.0793 19.8404 29.6083 20.0571 30.16 20.0571H44.72C45.2717 20.0571 45.8007 19.8404 46.1908 19.4546C46.5809 19.0688 46.8 18.5456 46.8 18C46.8 17.4544 46.5809 16.9312 46.1908 16.5454C45.8007 16.1596 45.2717 15.9429 44.72 15.9429H30.16ZM30.16 24.1714C29.6083 24.1714 29.0793 24.3882 28.6892 24.774C28.2991 25.1597 28.08 25.683 28.08 26.2286C28.08 26.7742 28.2991 27.2974 28.6892 27.6832C29.0793 28.069 29.6083 28.2857 30.16 28.2857H40.56C41.1116 28.2857 41.6407 28.069 42.0308 27.6832C42.4209 27.2974 42.64 26.7742 42.64 26.2286C42.64 25.683 42.4209 25.1597 42.0308 24.774C41.6407 24.3882 41.1116 24.1714 40.56 24.1714H30.16ZM14.3 16.8583C16.8116 16.8583 18.85 14.8114 18.85 12.2863C18.85 9.76114 16.8116 7.71429 14.3 7.71429C11.7884 7.71429 9.75 9.76114 9.75 12.2863C9.75 14.8114 11.7884 16.8583 14.3 16.8583ZM5.2 24.8554C5.2 26.7531 6.7288 28.2857 8.6138 28.2857H19.9862C21.8712 28.2857 23.4 26.7506 23.4 24.858C23.4 22.9629 21.6944 19.1417 14.3 19.1417C6.9056 19.1417 5.2 22.9603 5.2 24.8554Z" fill="#D7D7D7"/>
</svg>
