<svg width="150" height="150" viewBox="0 0 150 150" fill="none" xmlns="http://www.w3.org/2000/svg">
<rect width="150" height="150" rx="15" fill="url(#paint0_linear_209_1363)"/>
<path d="M103.563 47.2721C103.019 46.3304 102.241 45.5456 101.304 44.9942C100.367 44.4429 99.3024 44.1439 98.2152 44.1264H57.9503L56.1258 37.0172C55.9414 36.3309 55.5302 35.7272 54.9589 35.3046C54.3877 34.8819 53.6902 34.665 52.9801 34.6893H46.6887C45.8544 34.6893 45.0543 35.0208 44.4643 35.6107C43.8744 36.2006 43.543 37.0008 43.543 37.835C43.543 38.6693 43.8744 39.4695 44.4643 40.0594C45.0543 40.6493 45.8544 40.9807 46.6887 40.9807H50.5893L59.2714 73.2556C59.4558 73.9419 59.8671 74.5455 60.4383 74.9682C61.0095 75.3909 61.707 75.6077 62.4171 75.5834H90.7284C91.3093 75.5816 91.8784 75.4191 92.3726 75.1137C92.8667 74.8083 93.2667 74.372 93.5281 73.8533L103.846 53.2175C104.293 52.2801 104.501 51.2466 104.452 50.2092C104.403 49.1718 104.097 48.1628 103.563 47.2721Z" fill="#F5F5F5"/>
<path d="M60.8435 91.3111C63.4495 91.3111 65.5621 89.1985 65.5621 86.5926C65.5621 83.9866 63.4495 81.874 60.8435 81.874C58.2376 81.874 56.125 83.9866 56.125 86.5926C56.125 89.1985 58.2376 91.3111 60.8435 91.3111Z" fill="#F5F5F5"/>
<path d="M92.3006 91.3111C94.9066 91.3111 97.0191 89.1985 97.0191 86.5926C97.0191 83.9866 94.9066 81.874 92.3006 81.874C89.6946 81.874 87.582 83.9866 87.582 86.5926C87.582 89.1985 89.6946 91.3111 92.3006 91.3111Z" fill="#F5F5F5"/>
<path d="M31.64 117.748C31.1173 117.748 30.7173 117.604 30.44 117.316C30.1733 117.017 30.04 116.601 30.04 116.068V109.188H31.672V115.62C31.672 115.908 31.7307 116.111 31.848 116.228C31.9653 116.335 32.168 116.388 32.456 116.388H33.032V117.748H31.64ZM37.574 117.988C36.6247 117.988 35.8673 117.753 35.302 117.284C34.7473 116.804 34.47 116.127 34.47 115.252C34.47 114.388 34.7793 113.7 35.398 113.188C36.0273 112.676 36.8753 112.42 37.942 112.42C38.998 112.42 39.9473 112.617 40.79 113.012V112.356C40.79 111.62 40.5873 111.087 40.182 110.756C39.7873 110.415 39.126 110.244 38.198 110.244C37.686 110.244 37.1847 110.292 36.694 110.388C36.2033 110.484 35.7767 110.617 35.414 110.788V109.508C35.7447 109.348 36.1927 109.215 36.758 109.108C37.334 109.001 37.894 108.948 38.438 108.948C39.7713 108.948 40.7687 109.252 41.43 109.86C42.0913 110.468 42.422 111.289 42.422 112.324V117.748H40.79V114.308C40.0113 113.913 39.1207 113.716 38.118 113.716C37.4247 113.716 36.9127 113.844 36.582 114.1C36.262 114.356 36.102 114.74 36.102 115.252C36.102 116.223 36.726 116.708 37.974 116.708C38.358 116.708 38.694 116.655 38.982 116.548V117.812C38.598 117.929 38.1287 117.988 37.574 117.988ZM35.5167 106.852H38.7327V105.108H39.9327V106.852H41.2287V105.108H42.4128V107.924H35.5167V106.852ZM47.6768 117.988C47.0154 117.988 46.3754 117.908 45.7568 117.748C45.1381 117.599 44.6154 117.385 44.1888 117.108V112.852H47.7408V114.164H45.8207V116.292C46.2794 116.569 46.8981 116.708 47.6768 116.708C48.7008 116.708 49.4794 116.425 50.0128 115.86C50.5568 115.295 50.8288 114.473 50.8288 113.396C50.8288 112.319 50.5514 111.524 49.9968 111.012C49.4528 110.5 48.5568 110.244 47.3088 110.244C46.7434 110.244 46.1888 110.303 45.6448 110.42C45.1008 110.527 44.6421 110.703 44.2688 110.948V109.652C44.6848 109.417 45.1754 109.241 45.7408 109.124C46.3061 109.007 46.9141 108.948 47.5648 108.948C49.1648 108.948 50.3861 109.337 51.2288 110.116C52.0714 110.895 52.4928 111.988 52.4928 113.396C52.4928 114.815 52.0714 115.935 51.2288 116.756C50.3968 117.577 49.2128 117.988 47.6768 117.988ZM54.7388 112.42L53.9388 111.124C54.5041 110.409 55.1494 109.871 55.8748 109.508C56.6001 109.135 57.4588 108.948 58.4508 108.948C59.7308 108.948 60.7121 109.241 61.3948 109.828C62.0774 110.404 62.4188 111.215 62.4188 112.26V117.748H60.7868V112.388C60.7868 111.652 60.5894 111.113 60.1948 110.772C59.8108 110.42 59.2294 110.244 58.4508 110.244C57.8641 110.244 57.3468 110.335 56.8988 110.516C56.4508 110.687 56.0454 110.964 55.6828 111.348L56.3708 112.42V117.748H54.7388V112.42ZM68.1731 117.988C67.4158 117.988 66.7491 117.855 66.1731 117.588C65.5971 117.321 65.1491 116.948 64.8291 116.468C64.5198 115.988 64.3651 115.439 64.3651 114.82V114.196C64.3651 113.855 64.4558 113.535 64.6371 113.236C64.8185 112.937 65.0798 112.575 65.4211 112.148C65.6451 111.881 65.8105 111.668 65.9171 111.508C66.0238 111.348 66.0771 111.199 66.0771 111.06V111.012C65.8638 111.129 65.6078 111.188 65.3091 111.188C64.9465 111.188 64.6638 111.087 64.4611 110.884C64.2691 110.671 64.1731 110.361 64.1731 109.956V109.188H65.3411V109.748C65.3411 109.919 65.3785 110.047 65.4531 110.132C65.5385 110.207 65.6718 110.244 65.8531 110.244C66.0665 110.244 66.2425 110.175 66.3811 110.036V109.188H67.6451V110.644C67.6451 110.985 67.5651 111.311 67.4051 111.62C67.2451 111.929 67.0211 112.276 66.7331 112.66C66.4771 113.012 66.2905 113.305 66.1731 113.54C66.0558 113.764 65.9971 113.988 65.9971 114.212V114.788C65.9971 115.385 66.1891 115.855 66.5731 116.196C66.9571 116.537 67.4905 116.708 68.1731 116.708C68.8878 116.708 69.4478 116.511 69.8531 116.116C70.2691 115.721 70.4771 115.14 70.4771 114.372C70.4771 113.604 70.3171 113.028 69.9971 112.644C69.6771 112.26 69.2078 112.068 68.5891 112.068V111.188L70.2851 108.948H72.0611L70.2371 111.332C70.8878 111.577 71.3625 111.956 71.6611 112.468C71.9598 112.969 72.1091 113.604 72.1091 114.372C72.1091 115.097 71.9438 115.737 71.6131 116.292C71.2825 116.836 70.8185 117.257 70.2211 117.556C69.6345 117.844 68.9518 117.988 68.1731 117.988ZM64.9542 106.852H68.1702V105.108H69.3702V106.852H70.6662V105.108H71.8503V107.924H64.9542V106.852ZM69.1942 103.668C69.1942 103.54 69.1729 103.455 69.1302 103.412C69.0876 103.359 68.9969 103.332 68.8582 103.332H68.1862V102.244H69.3382C69.9569 102.244 70.2662 102.516 70.2662 103.06V103.572H72.9703V104.58H69.1942V103.668ZM77.1143 117.988C76.4529 117.988 75.8129 117.908 75.1943 117.748C74.5756 117.599 74.0529 117.385 73.6263 117.108V112.852H77.1783V114.164H75.2582V116.292C75.7169 116.569 76.3356 116.708 77.1143 116.708C78.1383 116.708 78.9169 116.425 79.4503 115.86C79.9943 115.295 80.2663 114.473 80.2663 113.396C80.2663 112.319 79.9889 111.524 79.4343 111.012C78.8903 110.5 77.9943 110.244 76.7463 110.244C76.1809 110.244 75.6263 110.303 75.0823 110.42C74.5383 110.527 74.0796 110.703 73.7063 110.948V109.652C74.1223 109.417 74.6129 109.241 75.1783 109.124C75.7436 109.007 76.3516 108.948 77.0023 108.948C78.6023 108.948 79.8236 109.337 80.6663 110.116C81.5089 110.895 81.9303 111.988 81.9303 113.396C81.9303 114.815 81.5089 115.935 80.6663 116.756C79.8343 117.577 78.6503 117.988 77.1143 117.988ZM83.6963 112.452C83.6963 111.343 84.0589 110.484 84.7843 109.876C85.5096 109.257 86.5069 108.948 87.7763 108.948C89.0349 108.948 90.0269 109.252 90.7523 109.86C91.4776 110.468 91.8403 111.332 91.8403 112.452V117.748H90.2083V112.404C90.2083 111.679 89.9949 111.14 89.5683 110.788C89.1416 110.425 88.5443 110.244 87.7763 110.244C86.9976 110.244 86.3949 110.425 85.9683 110.788C85.5416 111.14 85.3283 111.679 85.3283 112.404V114.036C85.4669 113.78 85.6856 113.577 85.9843 113.428C86.2829 113.268 86.6349 113.188 87.0403 113.188H88.3203V114.532H86.9123C86.4643 114.532 86.0856 114.692 85.7763 115.012C85.4776 115.321 85.3283 115.679 85.3283 116.084V117.748H83.6963V112.452ZM97.083 117.988C96.4217 117.988 95.7817 117.908 95.163 117.748C94.5443 117.599 94.0217 117.385 93.595 117.108V112.852H97.147V114.164H95.227V116.292C95.6857 116.569 96.3043 116.708 97.083 116.708C98.107 116.708 98.8857 116.425 99.419 115.86C99.963 115.295 100.235 114.473 100.235 113.396C100.235 112.319 99.9577 111.524 99.403 111.012C98.859 110.5 97.963 110.244 96.715 110.244C96.1497 110.244 95.595 110.303 95.051 110.42C94.507 110.527 94.0483 110.703 93.675 110.948V109.652C94.091 109.417 94.5817 109.241 95.147 109.124C95.7123 109.007 96.3203 108.948 96.971 108.948C98.571 108.948 99.7923 109.337 100.635 110.116C101.478 110.895 101.899 111.988 101.899 113.396C101.899 114.815 101.478 115.935 100.635 116.756C99.803 117.577 98.619 117.988 97.083 117.988ZM106.609 117.988C106.022 117.988 105.425 117.919 104.817 117.78C104.209 117.652 103.734 117.46 103.393 117.204V115.892C103.852 116.169 104.353 116.383 104.897 116.532C105.452 116.671 105.98 116.74 106.481 116.74C107.185 116.74 107.692 116.66 108.001 116.5C108.31 116.329 108.465 116.041 108.465 115.636C108.465 115.359 108.39 115.135 108.241 114.964C108.092 114.793 107.862 114.644 107.553 114.516C107.254 114.388 106.78 114.228 106.129 114.036C105.19 113.748 104.492 113.412 104.033 113.028C103.574 112.633 103.345 112.089 103.345 111.396C103.345 110.607 103.649 110.004 104.257 109.588C104.865 109.161 105.697 108.948 106.753 108.948C107.297 108.948 107.82 109.012 108.321 109.14C108.833 109.257 109.254 109.417 109.585 109.62V110.964C109.222 110.74 108.806 110.564 108.337 110.436C107.868 110.308 107.388 110.244 106.897 110.244C105.617 110.244 104.977 110.628 104.977 111.396C104.977 111.684 105.062 111.913 105.233 112.084C105.414 112.255 105.649 112.399 105.937 112.516C106.236 112.623 106.732 112.777 107.425 112.98C108.108 113.183 108.641 113.401 109.025 113.636C109.409 113.871 109.681 114.148 109.841 114.468C110.001 114.788 110.081 115.183 110.081 115.652C110.081 116.356 109.793 116.921 109.217 117.348C108.641 117.775 107.772 117.988 106.609 117.988ZM105.933 107.012C105.933 106.18 106.386 105.764 107.293 105.764H110.829V106.836H107.933C107.741 106.836 107.608 106.873 107.533 106.948C107.458 107.023 107.421 107.156 107.421 107.348V107.924H105.933V107.012ZM114.621 117.988C113.672 117.988 112.914 117.753 112.349 117.284C111.794 116.804 111.517 116.127 111.517 115.252C111.517 114.388 111.826 113.7 112.445 113.188C113.074 112.676 113.922 112.42 114.989 112.42C116.045 112.42 116.994 112.617 117.837 113.012V112.356C117.837 111.62 117.634 111.087 117.229 110.756C116.834 110.415 116.173 110.244 115.245 110.244C114.733 110.244 114.232 110.292 113.741 110.388C113.25 110.484 112.824 110.617 112.461 110.788V109.508C112.792 109.348 113.24 109.215 113.805 109.108C114.381 109.001 114.941 108.948 115.485 108.948C116.445 108.948 117.245 109.124 117.885 109.476L118.701 108.548H120.509L118.893 110.356C119.277 110.9 119.469 111.556 119.469 112.324V117.748H117.837V114.308C117.058 113.913 116.168 113.716 115.165 113.716C114.472 113.716 113.96 113.844 113.629 114.1C113.309 114.356 113.149 114.74 113.149 115.252C113.149 116.223 113.773 116.708 115.021 116.708C115.405 116.708 115.741 116.655 116.029 116.548V117.812C115.645 117.929 115.176 117.988 114.621 117.988Z" fill="#F0F0F0"/>
<defs>
<linearGradient id="paint0_linear_209_1363" x1="-4.38339e-08" y1="89.4643" x2="150" y2="88.3929" gradientUnits="userSpaceOnUse">
<stop stop-color="#2BB7BF"/>
<stop offset="1" stop-color="#2CC9C5"/>
</linearGradient>
</defs>
</svg>
