<svg width="150" height="150" viewBox="0 0 150 150" fill="none" xmlns="http://www.w3.org/2000/svg">
<rect width="150" height="150" rx="15" fill="url(#paint0_linear_209_1382)"/>
<path d="M54 70.5V66H58.5V70.5H54Z" fill="#F5F5F5"/>
<path fill-rule="evenodd" clip-rule="evenodd" d="M87 93H51C47.6863 93 45 90.3137 45 87V39C45 35.6863 47.6863 33 51 33H87C90.3136 33 93 35.6863 93 39V87C93 90.3137 90.3136 93 87 93ZM66 46.5C66 45.6716 66.6715 45 67.5 45H85.5C86.3284 45 87 45.6716 87 46.5C87 47.3284 86.3284 48 85.5 48H67.5C66.6715 48 66 47.3284 66 46.5ZM67.5 51C66.6715 51 66 51.6716 66 52.5C66 53.3284 66.6715 54 67.5 54H85.5C86.3284 54 87 53.3284 87 52.5C87 51.6716 86.3284 51 85.5 51H67.5ZM62.5606 45.4394C63.1464 46.0251 63.1464 46.9749 62.5606 47.5606L55.5 54.6213L51.4393 50.5606C50.8536 49.9749 50.8536 49.0251 51.4393 48.4394C52.0251 47.8536 52.9749 47.8536 53.5607 48.4394L55.5 50.3787L60.4393 45.4394C61.0251 44.8536 61.9749 44.8536 62.5606 45.4394ZM67.5 63C66.6715 63 66 63.6716 66 64.5C66 65.3284 66.6715 66 67.5 66H85.5C86.3284 66 87 65.3284 87 64.5C87 63.6716 86.3284 63 85.5 63H67.5ZM66 70.5C66 69.6716 66.6715 69 67.5 69H85.5C86.3284 69 87 69.6716 87 70.5C87 71.3284 86.3284 72 85.5 72H67.5C66.6715 72 66 71.3284 66 70.5ZM60 63H52.5C51.6716 63 51 63.6716 51 64.5V72C51 72.8284 51.6716 73.5 52.5 73.5H60C60.8284 73.5 61.5 72.8284 61.5 72V64.5C61.5 63.6716 60.8284 63 60 63Z" fill="#F5F5F5"/>
<path fill-rule="evenodd" clip-rule="evenodd" d="M105 87.0001L100.5 93.0001L96.0002 87.0001V60.0001H105V87.0001Z" fill="#F5F5F5"/>
<path fill-rule="evenodd" clip-rule="evenodd" d="M99.0002 49.5001H102C103.657 49.5001 105 50.8432 105 52.5001V58.5001H96.0002V52.5001C96.0002 50.8432 97.3433 49.5001 99.0002 49.5001Z" fill="#F5F5F5"/>
<path d="M31.06 118.24C30.292 118.24 29.6253 118.107 29.06 117.84C28.4947 117.573 28.0573 117.2 27.748 116.72C27.4493 116.229 27.3 115.669 27.3 115.04V114.496C27.3 114.133 27.3747 113.803 27.524 113.504C27.6733 113.205 27.892 112.859 28.18 112.464C28.3827 112.197 28.532 111.979 28.628 111.808C28.724 111.627 28.772 111.456 28.772 111.296C28.772 111.093 28.7187 110.949 28.612 110.864C28.516 110.779 28.3507 110.736 28.116 110.736H27.22V109.44H28.9C29.3693 109.44 29.7373 109.579 30.004 109.856C30.2813 110.123 30.42 110.48 30.42 110.928C30.42 111.237 30.356 111.525 30.228 111.792C30.1 112.048 29.908 112.363 29.652 112.736C29.396 113.12 29.2093 113.429 29.092 113.664C28.9853 113.899 28.932 114.155 28.932 114.432V115.024C28.932 115.643 29.108 116.123 29.46 116.464C29.8227 116.795 30.356 116.96 31.06 116.96C31.764 116.96 32.2867 116.789 32.628 116.448C32.9693 116.096 33.14 115.605 33.14 114.976V109.44H34.772V114.704C34.772 115.803 34.4467 116.667 33.796 117.296C33.1453 117.925 32.2333 118.24 31.06 118.24ZM31.3325 107.168C31.3325 107.04 31.3112 106.949 31.2685 106.896C31.2152 106.843 31.1245 106.816 30.9965 106.816H30.2765V105.664H31.4765C31.8178 105.664 32.0685 105.749 32.2285 105.92C32.3778 106.08 32.4525 106.283 32.4525 106.528V107.088H35.7325V108.176H31.3325V107.168ZM40.0205 118.24C39.3592 118.24 38.7192 118.16 38.1005 118C37.4818 117.851 36.9592 117.637 36.5325 117.36V113.104H40.0845V114.416H38.1645V116.544C38.6232 116.821 39.2418 116.96 40.0205 116.96C41.0445 116.96 41.8232 116.677 42.3565 116.112C42.9005 115.547 43.1725 114.725 43.1725 113.648C43.1725 112.571 42.8952 111.776 42.3405 111.264C41.7965 110.752 40.9005 110.496 39.6525 110.496C39.0872 110.496 38.5325 110.555 37.9885 110.672C37.4445 110.779 36.9858 110.955 36.6125 111.2V109.904C37.0285 109.669 37.5192 109.493 38.0845 109.376C38.6498 109.259 39.2578 109.2 39.9085 109.2C41.5085 109.2 42.7298 109.589 43.5725 110.368C44.4152 111.147 44.8365 112.24 44.8365 113.648C44.8365 115.067 44.4152 116.187 43.5725 117.008C42.7405 117.829 41.5565 118.24 40.0205 118.24ZM51.2585 118.24C50.6718 118.24 50.1118 118.123 49.5785 117.888C49.0558 117.653 48.5865 117.307 48.1705 116.848V118H46.6025V109.44H48.2345V115.488C48.8638 116.469 49.7278 116.96 50.8265 116.96C51.5198 116.96 52.0425 116.8 52.3945 116.48C52.7572 116.149 52.9385 115.664 52.9385 115.024V109.44H54.5705V115.088C54.5705 116.016 54.2772 116.773 53.6905 117.36C53.1038 117.947 52.2932 118.24 51.2585 118.24ZM52.5854 122.336C51.924 122.336 51.412 122.197 51.0494 121.92C50.676 121.643 50.4894 121.269 50.4894 120.8V120.368C50.4894 120.219 50.468 120.117 50.4254 120.064C50.3827 120.021 50.292 120 50.1534 120H49.6094V118.912H51.0174C51.3054 118.912 51.5027 118.976 51.6094 119.104C51.716 119.232 51.7694 119.44 51.7694 119.728V120.64C51.7694 121.109 52.0254 121.344 52.5374 121.344C53.0387 121.344 53.2894 121.109 53.2894 120.64V118.912H54.5694V120.752C54.5694 121.221 54.3987 121.6 54.0574 121.888C53.7054 122.187 53.2147 122.336 52.5854 122.336ZM59.4334 118.24C58.484 118.24 57.7267 118.005 57.1614 117.536C56.6067 117.056 56.3294 116.379 56.3294 115.504C56.3294 114.64 56.6387 113.952 57.2574 113.44C57.8867 112.928 58.7347 112.672 59.8014 112.672C60.8574 112.672 61.8067 112.869 62.6494 113.264V112.608C62.6494 111.872 62.4467 111.339 62.0414 111.008C61.6467 110.667 60.9854 110.496 60.0574 110.496C59.5454 110.496 59.044 110.544 58.5534 110.64C58.0627 110.736 57.636 110.869 57.2734 111.04V109.76C57.604 109.6 58.052 109.467 58.6174 109.36C59.1934 109.253 59.7534 109.2 60.2974 109.2C61.6307 109.2 62.628 109.504 63.2894 110.112C63.9507 110.72 64.2814 111.541 64.2814 112.576V118H62.6494V114.56C61.8707 114.165 60.98 113.968 59.9774 113.968C59.284 113.968 58.772 114.096 58.4414 114.352C58.1214 114.608 57.9614 114.992 57.9614 115.504C57.9614 116.475 58.5854 116.96 59.8334 116.96C60.2174 116.96 60.5534 116.907 60.8414 116.8V118.064C60.4574 118.181 59.988 118.24 59.4334 118.24ZM69.6801 118.24C68.6348 118.24 67.8188 117.947 67.2321 117.36C66.6561 116.773 66.3681 116.016 66.3681 115.088V109.44H68.0001V115.024C68.0001 115.664 68.1761 116.149 68.5281 116.48C68.8908 116.8 69.4188 116.96 70.1121 116.96C71.2108 116.96 72.0748 116.469 72.7041 115.488V109.44H74.3361V118H72.7521V116.848C71.9521 117.776 70.9281 118.24 69.6801 118.24ZM71.327 108.176C70.8683 108.176 70.5377 108.064 70.335 107.84C70.1217 107.605 70.015 107.259 70.015 106.8V105.968H71.487V106.608C71.487 106.789 71.5243 106.912 71.599 106.976C71.663 107.04 71.791 107.072 71.983 107.072H75.759V108.176H71.327ZM80.207 118.24C78.927 118.24 77.919 117.877 77.183 117.152C76.4577 116.427 76.095 115.36 76.095 113.952C76.095 112.971 76.2817 112.123 76.655 111.408C77.039 110.693 77.583 110.149 78.287 109.776C78.991 109.392 79.8283 109.2 80.799 109.2C82.303 109.2 83.4017 109.557 84.095 110.272C84.7883 110.976 85.135 111.877 85.135 112.976V118H83.503V112.96C83.503 111.317 82.6017 110.496 80.799 110.496C79.8497 110.496 79.103 110.795 78.559 111.392C78.015 111.989 77.743 112.843 77.743 113.952C77.743 114.976 77.9723 115.733 78.431 116.224C78.8897 116.715 79.5723 116.96 80.479 116.96C80.8843 116.96 81.2577 116.907 81.599 116.8V118.064C81.2257 118.181 80.7617 118.24 80.207 118.24ZM87.2119 109.44H88.8439V113.216L92.9879 109.44H94.8919L92.5559 111.568C93.4305 111.792 94.0385 112.149 94.3799 112.64C94.7319 113.131 94.9079 113.787 94.9079 114.608V118H93.2759V114.704C93.2759 114.064 93.1425 113.579 92.8759 113.248C92.6199 112.917 92.1719 112.683 91.5319 112.544L88.8439 114.992V118H87.2119V109.44ZM101.649 118.24C101.062 118.24 100.502 118.123 99.9691 117.888C99.4465 117.653 98.9771 117.307 98.5611 116.848V118H96.9931V109.44H98.6251V115.488C99.2545 116.469 100.118 116.96 101.217 116.96C101.91 116.96 102.433 116.8 102.785 116.48C103.148 116.149 103.329 115.664 103.329 115.024V109.44H104.961V115.088C104.961 116.016 104.668 116.773 104.081 117.36C103.494 117.947 102.684 118.24 101.649 118.24ZM110.048 112.464C110.048 111.781 109.909 111.285 109.632 110.976C109.355 110.656 108.864 110.496 108.16 110.496C107.477 110.496 106.837 110.645 106.24 110.944V109.664C106.496 109.536 106.827 109.429 107.232 109.344C107.648 109.248 108.059 109.2 108.464 109.2C109.541 109.2 110.347 109.493 110.88 110.08C111.413 110.656 111.68 111.488 111.68 112.576V118H110.048V112.464ZM117.503 118.24C116.265 118.24 115.279 118.005 114.543 117.536C113.807 117.067 113.439 116.384 113.439 115.488C113.439 115.019 113.567 114.608 113.823 114.256C114.089 113.893 114.441 113.643 114.879 113.504C114.463 113.323 114.127 113.061 113.871 112.72C113.625 112.379 113.503 111.984 113.503 111.536C113.503 110.832 113.737 110.267 114.207 109.84C114.676 109.413 115.364 109.2 116.271 109.2C116.527 109.2 116.788 109.221 117.055 109.264C117.321 109.296 117.535 109.333 117.695 109.376V110.656C117.556 110.603 117.375 110.565 117.151 110.544C116.937 110.512 116.74 110.496 116.559 110.496C116.1 110.496 115.748 110.597 115.503 110.8C115.268 110.992 115.151 111.269 115.151 111.632C115.151 112.016 115.279 112.309 115.535 112.512C115.791 112.715 116.169 112.816 116.671 112.816H117.695V114.16H116.687C116.175 114.16 115.78 114.272 115.503 114.496C115.225 114.709 115.087 115.04 115.087 115.488C115.087 115.957 115.3 116.32 115.727 116.576C116.164 116.832 116.756 116.96 117.503 116.96C119.263 116.96 120.143 116.213 120.143 114.72V109.44H121.775V114.688C121.775 115.285 121.636 115.856 121.359 116.4C121.081 116.933 120.623 117.376 119.983 117.728C119.353 118.069 118.527 118.24 117.503 118.24Z" fill="#F0F0F0"/>
<defs>
<linearGradient id="paint0_linear_209_1382" x1="3.54205e-06" y1="75.5357" x2="150" y2="75.5357" gradientUnits="userSpaceOnUse">
<stop stop-color="#2BB7BF"/>
<stop offset="1" stop-color="#2CC9C5"/>
</linearGradient>
</defs>
</svg>
