<svg width="150" height="150" viewBox="0 0 150 150" fill="none" xmlns="http://www.w3.org/2000/svg">
<rect width="150" height="150" rx="15" fill="url(#paint0_linear_209_1377)"/>
<path d="M97.8088 54.5371L94.1522 50.8805L98.4016 46.6336L101.934 50.1658L104.539 47.563L90.4761 33.5L87.8733 36.1028L91.4055 39.635L87.1561 43.8844L83.4995 40.2278L51.8853 71.842L51.5828 85.0122L45.9991 90.5959L46.2771 93.167L53.0049 86.4392L66.1751 86.1367L97.8088 54.5371ZM93.6424 54.5371L77.5816 70.5979L67.4631 60.4794L71.5466 56.391L76.6205 61.4649L78.7671 59.3183L73.6932 54.2444L77.4742 50.4634L82.5481 55.5373L84.6948 53.3906L79.6209 48.3167L83.5092 44.4284L93.6424 54.5371Z" fill="#F5F5F5"/>
<path d="M29.06 117.74C28.292 117.74 27.6253 117.607 27.06 117.34C26.4947 117.073 26.0573 116.7 25.748 116.22C25.4493 115.729 25.3 115.169 25.3 114.54V113.996C25.3 113.633 25.3747 113.303 25.524 113.004C25.6733 112.705 25.892 112.359 26.18 111.964C26.3827 111.697 26.532 111.479 26.628 111.308C26.724 111.127 26.772 110.956 26.772 110.796C26.772 110.593 26.7187 110.449 26.612 110.364C26.516 110.279 26.3507 110.236 26.116 110.236H25.22V108.94H26.9C27.3693 108.94 27.7373 109.079 28.004 109.356C28.2813 109.623 28.42 109.98 28.42 110.428C28.42 110.737 28.356 111.025 28.228 111.292C28.1 111.548 27.908 111.863 27.652 112.236C27.396 112.62 27.2093 112.929 27.092 113.164C26.9853 113.399 26.932 113.655 26.932 113.932V114.524C26.932 115.143 27.108 115.623 27.46 115.964C27.8227 116.295 28.356 116.46 29.06 116.46C29.764 116.46 30.2867 116.289 30.628 115.948C30.9693 115.596 31.14 115.105 31.14 114.476V108.94H32.772V114.204C32.772 115.303 32.4467 116.167 31.796 116.796C31.1453 117.425 30.2333 117.74 29.06 117.74ZM29.3325 106.668C29.3325 106.54 29.3112 106.449 29.2685 106.396C29.2152 106.343 29.1245 106.316 28.9965 106.316H28.2765V105.164H29.4765C29.8178 105.164 30.0685 105.249 30.2285 105.42C30.3778 105.58 30.4525 105.783 30.4525 106.028V106.588H33.7325V107.676H29.3325V106.668ZM38.0205 117.74C37.3592 117.74 36.7192 117.66 36.1005 117.5C35.4818 117.351 34.9592 117.137 34.5325 116.86V112.604H38.0845V113.916H36.1645V116.044C36.6232 116.321 37.2418 116.46 38.0205 116.46C39.0445 116.46 39.8232 116.177 40.3565 115.612C40.9005 115.047 41.1725 114.225 41.1725 113.148C41.1725 112.071 40.8952 111.276 40.3405 110.764C39.7965 110.252 38.9005 109.996 37.6525 109.996C37.0872 109.996 36.5325 110.055 35.9885 110.172C35.4445 110.279 34.9858 110.455 34.6125 110.7V109.404C35.0285 109.169 35.5192 108.993 36.0845 108.876C36.6498 108.759 37.2578 108.7 37.9085 108.7C39.5085 108.7 40.7298 109.089 41.5725 109.868C42.4152 110.647 42.8365 111.74 42.8365 113.148C42.8365 114.567 42.4152 115.687 41.5725 116.508C40.7405 117.329 39.5565 117.74 38.0205 117.74ZM49.2585 117.74C48.6718 117.74 48.1118 117.623 47.5785 117.388C47.0558 117.153 46.5865 116.807 46.1705 116.348V117.5H44.6025V108.94H46.2345V114.988C46.8638 115.969 47.7278 116.46 48.8265 116.46C49.5198 116.46 50.0425 116.3 50.3945 115.98C50.7572 115.649 50.9385 115.164 50.9385 114.524V108.94H52.5705V114.588C52.5705 115.516 52.2772 116.273 51.6905 116.86C51.1038 117.447 50.2932 117.74 49.2585 117.74ZM50.5854 121.836C49.924 121.836 49.412 121.697 49.0494 121.42C48.676 121.143 48.4894 120.769 48.4894 120.3V119.868C48.4894 119.719 48.468 119.617 48.4254 119.564C48.3827 119.521 48.292 119.5 48.1534 119.5H47.6094V118.412H49.0174C49.3054 118.412 49.5027 118.476 49.6094 118.604C49.716 118.732 49.7694 118.94 49.7694 119.228V120.14C49.7694 120.609 50.0254 120.844 50.5374 120.844C51.0387 120.844 51.2894 120.609 51.2894 120.14V118.412H52.5694V120.252C52.5694 120.721 52.3987 121.1 52.0574 121.388C51.7054 121.687 51.2147 121.836 50.5854 121.836ZM57.4334 117.74C56.484 117.74 55.7267 117.505 55.1614 117.036C54.6067 116.556 54.3294 115.879 54.3294 115.004C54.3294 114.14 54.6387 113.452 55.2574 112.94C55.8867 112.428 56.7347 112.172 57.8014 112.172C58.8574 112.172 59.8067 112.369 60.6494 112.764V112.108C60.6494 111.372 60.4467 110.839 60.0414 110.508C59.6467 110.167 58.9854 109.996 58.0574 109.996C57.5454 109.996 57.044 110.044 56.5534 110.14C56.0627 110.236 55.636 110.369 55.2734 110.54V109.26C55.604 109.1 56.052 108.967 56.6174 108.86C57.1934 108.753 57.7534 108.7 58.2974 108.7C59.6307 108.7 60.628 109.004 61.2894 109.612C61.9507 110.22 62.2814 111.041 62.2814 112.076V117.5H60.6494V114.06C59.8707 113.665 58.98 113.468 57.9774 113.468C57.284 113.468 56.772 113.596 56.4414 113.852C56.1214 114.108 55.9614 114.492 55.9614 115.004C55.9614 115.975 56.5854 116.46 57.8334 116.46C58.2174 116.46 58.5534 116.407 58.8414 116.3V117.564C58.4574 117.681 57.988 117.74 57.4334 117.74ZM67.3121 117.74C66.7255 117.74 66.1281 117.671 65.5201 117.532C64.9121 117.404 64.4375 117.212 64.0961 116.956V115.644C64.5548 115.921 65.0561 116.135 65.6001 116.284C66.1548 116.423 66.6828 116.492 67.1841 116.492C67.8881 116.492 68.3948 116.412 68.7041 116.252C69.0135 116.081 69.1681 115.793 69.1681 115.388C69.1681 115.111 69.0935 114.887 68.9441 114.716C68.7948 114.545 68.5655 114.396 68.2561 114.268C67.9575 114.14 67.4828 113.98 66.8321 113.788C65.8935 113.5 65.1948 113.164 64.7361 112.78C64.2775 112.385 64.0481 111.841 64.0481 111.148C64.0481 110.359 64.3521 109.756 64.9601 109.34C65.5681 108.913 66.4001 108.7 67.4561 108.7C68.0001 108.7 68.5228 108.764 69.0241 108.892C69.5361 109.009 69.9575 109.169 70.2881 109.372V110.716C69.9255 110.492 69.5095 110.316 69.0401 110.188C68.5708 110.06 68.0908 109.996 67.6001 109.996C66.3201 109.996 65.6801 110.38 65.6801 111.148C65.6801 111.436 65.7655 111.665 65.9361 111.836C66.1175 112.007 66.3521 112.151 66.6401 112.268C66.9388 112.375 67.4348 112.529 68.1281 112.732C68.8108 112.935 69.3441 113.153 69.7281 113.388C70.1121 113.623 70.3841 113.9 70.5441 114.22C70.7041 114.54 70.7841 114.935 70.7841 115.404C70.7841 116.108 70.4961 116.673 69.9201 117.1C69.3441 117.527 68.4748 117.74 67.3121 117.74ZM67.452 107.676C66.9933 107.676 66.6627 107.564 66.46 107.34C66.2467 107.105 66.14 106.759 66.14 106.3V105.468H67.612V106.108C67.612 106.289 67.6493 106.412 67.724 106.476C67.788 106.54 67.916 106.572 68.108 106.572H71.884V107.676H67.452ZM76.652 117.74C75.82 117.74 75.0947 117.591 74.476 117.292C73.8573 116.993 73.3773 116.577 73.036 116.044C72.7053 115.5 72.54 114.881 72.54 114.188V108.94H74.172V114.156C74.172 114.871 74.38 115.436 74.796 115.852C75.2227 116.257 75.8413 116.46 76.652 116.46C77.452 116.46 78.06 116.257 78.476 115.852C78.9027 115.436 79.116 114.871 79.116 114.156V108.94H80.748V114.188C80.748 114.881 80.5773 115.5 80.236 116.044C79.9053 116.577 79.4307 116.993 78.812 117.292C78.1933 117.591 77.4733 117.74 76.652 117.74ZM86.9333 117.74C86.1013 117.74 85.3759 117.591 84.7573 117.292C84.1386 116.993 83.6586 116.577 83.3173 116.044C82.9866 115.5 82.8213 114.881 82.8213 114.188V108.94H84.4533V114.156C84.4533 114.871 84.6613 115.436 85.0773 115.852C85.5039 116.257 86.1226 116.46 86.9333 116.46C87.7333 116.46 88.3413 116.257 88.7573 115.852C89.1839 115.436 89.3973 114.871 89.3973 114.156V108.94H91.0293V114.188C91.0293 114.881 90.8586 115.5 90.5173 116.044C90.1866 116.577 89.7119 116.993 89.0933 117.292C88.4746 117.591 87.7546 117.74 86.9333 117.74ZM96.0465 117.74C95.4598 117.74 94.8625 117.671 94.2545 117.532C93.6465 117.404 93.1718 117.212 92.8305 116.956V115.644C93.2892 115.921 93.7905 116.135 94.3345 116.284C94.8892 116.423 95.4172 116.492 95.9185 116.492C96.6225 116.492 97.1292 116.412 97.4385 116.252C97.7478 116.081 97.9025 115.793 97.9025 115.388C97.9025 115.111 97.8278 114.887 97.6785 114.716C97.5292 114.545 97.2998 114.396 96.9905 114.268C96.6918 114.14 96.2172 113.98 95.5665 113.788C94.6278 113.5 93.9292 113.164 93.4705 112.78C93.0118 112.385 92.7825 111.841 92.7825 111.148C92.7825 110.359 93.0865 109.756 93.6945 109.34C94.3025 108.913 95.1345 108.7 96.1905 108.7C96.7345 108.7 97.2572 108.764 97.7585 108.892C98.2705 109.009 98.6918 109.169 99.0225 109.372V110.716C98.6598 110.492 98.2438 110.316 97.7745 110.188C97.3052 110.06 96.8252 109.996 96.3345 109.996C95.0545 109.996 94.4145 110.38 94.4145 111.148C94.4145 111.436 94.4998 111.665 94.6705 111.836C94.8518 112.007 95.0865 112.151 95.3745 112.268C95.6732 112.375 96.1692 112.529 96.8625 112.732C97.5452 112.935 98.0785 113.153 98.4625 113.388C98.8465 113.623 99.1185 113.9 99.2785 114.22C99.4385 114.54 99.5185 114.935 99.5185 115.404C99.5185 116.108 99.2305 116.673 98.6545 117.1C98.0785 117.527 97.2092 117.74 96.0465 117.74ZM92.2664 106.572H99.1784V107.676H92.2664V106.572ZM101.754 112.172L100.954 110.876C101.52 110.161 102.165 109.623 102.89 109.26C103.616 108.887 104.474 108.7 105.466 108.7C106.746 108.7 107.728 108.993 108.41 109.58C109.093 110.156 109.434 110.967 109.434 112.012V117.5H107.802V112.14C107.802 111.404 107.605 110.865 107.21 110.524C106.826 110.172 106.245 109.996 105.466 109.996C104.88 109.996 104.362 110.087 103.914 110.268C103.466 110.439 103.061 110.716 102.698 111.1L103.386 112.172V117.5H101.754V112.172ZM114.517 111.964C114.517 111.281 114.378 110.785 114.101 110.476C113.823 110.156 113.333 109.996 112.629 109.996C111.946 109.996 111.306 110.145 110.709 110.444V109.164C110.965 109.036 111.295 108.929 111.701 108.844C112.117 108.748 112.527 108.7 112.933 108.7C114.01 108.7 114.815 108.993 115.349 109.58C115.882 110.156 116.149 110.988 116.149 112.076V117.5H114.517V111.964ZM121.172 117.74C120.585 117.74 119.988 117.671 119.38 117.532C118.772 117.404 118.297 117.212 117.956 116.956V115.644C118.414 115.921 118.916 116.135 119.46 116.284C120.014 116.423 120.542 116.492 121.044 116.492C121.748 116.492 122.254 116.412 122.564 116.252C122.873 116.081 123.028 115.793 123.028 115.388C123.028 115.111 122.953 114.887 122.804 114.716C122.654 114.545 122.425 114.396 122.116 114.268C121.817 114.14 121.342 113.98 120.692 113.788C119.753 113.5 119.054 113.164 118.596 112.78C118.137 112.385 117.908 111.841 117.908 111.148C117.908 110.359 118.212 109.756 118.82 109.34C119.428 108.913 120.26 108.7 121.316 108.7C121.86 108.7 122.382 108.764 122.884 108.892C123.396 109.009 123.817 109.169 124.148 109.372V110.716C123.785 110.492 123.369 110.316 122.9 110.188C122.43 110.06 121.95 109.996 121.46 109.996C120.18 109.996 119.539 110.38 119.539 111.148C119.539 111.436 119.625 111.665 119.796 111.836C119.977 112.007 120.212 112.151 120.5 112.268C120.798 112.375 121.294 112.529 121.988 112.732C122.67 112.935 123.204 113.153 123.588 113.388C123.972 113.623 124.244 113.9 124.404 114.22C124.564 114.54 124.644 114.935 124.644 115.404C124.644 116.108 124.356 116.673 123.78 117.1C123.204 117.527 122.334 117.74 121.172 117.74Z" fill="#F0F0F0"/>
<defs>
<linearGradient id="paint0_linear_209_1377" x1="2.08122e-08" y1="83.5714" x2="150" y2="82.5" gradientUnits="userSpaceOnUse">
<stop stop-color="#2BB7BF"/>
<stop offset="1" stop-color="#2CC9C5"/>
</linearGradient>
</defs>
</svg>
