<svg width="150" height="150" viewBox="0 0 150 150" fill="none" xmlns="http://www.w3.org/2000/svg">
<rect width="150" height="150" rx="15" fill="url(#paint0_linear_209_1372)"/>
<path fill-rule="evenodd" clip-rule="evenodd" d="M96.6666 47.9118H53.3334V42.8824C53.3334 41.9435 54.0667 41.2059 55 41.2059H60V42.8824C60 43.8212 60.7333 44.5588 61.6667 44.5588C62.6 44.5588 63.3333 43.8212 63.3333 42.8824V41.2059H86.6667V42.8824C86.6667 43.8212 87.4 44.5588 88.3333 44.5588C89.2667 44.5588 90 43.8212 90 42.8824V41.2059H95C95.9333 41.2059 96.6666 41.9435 96.6666 42.8824V47.9118ZM71.6667 78.7924L60.5 67.5265L62.8333 65.1794L71.6667 74.0312L87.1667 58.4735L89.5 60.8206L71.6667 78.7924ZM95 37.8529H90V36.1765C90 35.2376 89.2667 34.5 88.3333 34.5C87.4 34.5 86.6667 35.2376 86.6667 36.1765V37.8529H63.3333V36.1765C63.3333 35.2376 62.6 34.5 61.6667 34.5C60.7333 34.5 60 35.2376 60 36.1765V37.8529H55C52.2333 37.8529 50 40.0994 50 42.8824V91.5H100V42.8824C100 40.0994 97.7667 37.8529 95 37.8529Z" fill="#F5F5F5"/>
<path d="M26.56 117.74C25.792 117.74 25.1253 117.607 24.56 117.34C23.9947 117.073 23.5573 116.7 23.248 116.22C22.9493 115.729 22.8 115.169 22.8 114.54V113.996C22.8 113.633 22.8747 113.303 23.024 113.004C23.1733 112.705 23.392 112.359 23.68 111.964C23.8827 111.697 24.032 111.479 24.128 111.308C24.224 111.127 24.272 110.956 24.272 110.796C24.272 110.593 24.2187 110.449 24.112 110.364C24.016 110.279 23.8507 110.236 23.616 110.236H22.72V108.94H24.4C24.8693 108.94 25.2373 109.079 25.504 109.356C25.7813 109.623 25.92 109.98 25.92 110.428C25.92 110.737 25.856 111.025 25.728 111.292C25.6 111.548 25.408 111.863 25.152 112.236C24.896 112.62 24.7093 112.929 24.592 113.164C24.4853 113.399 24.432 113.655 24.432 113.932V114.524C24.432 115.143 24.608 115.623 24.96 115.964C25.3227 116.295 25.856 116.46 26.56 116.46C27.264 116.46 27.7867 116.289 28.128 115.948C28.4693 115.596 28.64 115.105 28.64 114.476V108.94H30.272V114.204C30.272 115.303 29.9467 116.167 29.296 116.796C28.6453 117.425 27.7333 117.74 26.56 117.74ZM26.8325 106.668C26.8325 106.54 26.8112 106.449 26.7685 106.396C26.7152 106.343 26.6245 106.316 26.4965 106.316H25.7765V105.164H26.9765C27.3178 105.164 27.5685 105.249 27.7285 105.42C27.8778 105.58 27.9525 105.783 27.9525 106.028V106.588H31.2325V107.676H26.8325V106.668ZM35.5205 117.74C34.8592 117.74 34.2192 117.66 33.6005 117.5C32.9818 117.351 32.4592 117.137 32.0325 116.86V112.604H35.5845V113.916H33.6645V116.044C34.1232 116.321 34.7418 116.46 35.5205 116.46C36.5445 116.46 37.3232 116.177 37.8565 115.612C38.4005 115.047 38.6725 114.225 38.6725 113.148C38.6725 112.071 38.3952 111.276 37.8405 110.764C37.2965 110.252 36.4005 109.996 35.1525 109.996C34.5872 109.996 34.0325 110.055 33.4885 110.172C32.9445 110.279 32.4858 110.455 32.1125 110.7V109.404C32.5285 109.169 33.0192 108.993 33.5845 108.876C34.1498 108.759 34.7578 108.7 35.4085 108.7C37.0085 108.7 38.2298 109.089 39.0725 109.868C39.9152 110.647 40.3365 111.74 40.3365 113.148C40.3365 114.567 39.9152 115.687 39.0725 116.508C38.2405 117.329 37.0565 117.74 35.5205 117.74ZM46.7585 117.74C46.1718 117.74 45.6118 117.623 45.0785 117.388C44.5558 117.153 44.0865 116.807 43.6705 116.348V117.5H42.1025V108.94H43.7345V114.988C44.3638 115.969 45.2278 116.46 46.3265 116.46C47.0198 116.46 47.5425 116.3 47.8945 115.98C48.2572 115.649 48.4385 115.164 48.4385 114.524V108.94H50.0705V114.588C50.0705 115.516 49.7772 116.273 49.1905 116.86C48.6038 117.447 47.7932 117.74 46.7585 117.74ZM48.0854 121.836C47.424 121.836 46.912 121.697 46.5494 121.42C46.176 121.143 45.9894 120.769 45.9894 120.3V119.868C45.9894 119.719 45.968 119.617 45.9254 119.564C45.8827 119.521 45.792 119.5 45.6534 119.5H45.1094V118.412H46.5174C46.8054 118.412 47.0027 118.476 47.1094 118.604C47.216 118.732 47.2694 118.94 47.2694 119.228V120.14C47.2694 120.609 47.5254 120.844 48.0374 120.844C48.5387 120.844 48.7894 120.609 48.7894 120.14V118.412H50.0694V120.252C50.0694 120.721 49.8987 121.1 49.5574 121.388C49.2054 121.687 48.7147 121.836 48.0854 121.836ZM54.9334 117.74C53.984 117.74 53.2267 117.505 52.6614 117.036C52.1067 116.556 51.8294 115.879 51.8294 115.004C51.8294 114.14 52.1387 113.452 52.7574 112.94C53.3867 112.428 54.2347 112.172 55.3014 112.172C56.3574 112.172 57.3067 112.369 58.1494 112.764V112.108C58.1494 111.372 57.9467 110.839 57.5414 110.508C57.1467 110.167 56.4854 109.996 55.5574 109.996C55.0454 109.996 54.544 110.044 54.0534 110.14C53.5627 110.236 53.136 110.369 52.7734 110.54V109.26C53.104 109.1 53.552 108.967 54.1174 108.86C54.6934 108.753 55.2534 108.7 55.7974 108.7C57.1307 108.7 58.128 109.004 58.7894 109.612C59.4507 110.22 59.7814 111.041 59.7814 112.076V117.5H58.1494V114.06C57.3707 113.665 56.48 113.468 55.4774 113.468C54.784 113.468 54.272 113.596 53.9414 113.852C53.6214 114.108 53.4614 114.492 53.4614 115.004C53.4614 115.975 54.0854 116.46 55.3334 116.46C55.7174 116.46 56.0534 116.407 56.3414 116.3V117.564C55.9574 117.681 55.488 117.74 54.9334 117.74ZM61.9801 112.796H63.5961L64.4281 116.22C65.4628 116.22 66.2895 115.943 66.9081 115.388C67.5375 114.823 67.8521 114.044 67.8521 113.052C67.8521 111.975 67.5961 111.196 67.0841 110.716C66.5721 110.236 65.7295 109.996 64.5561 109.996C64.0228 109.996 63.4788 110.049 62.9241 110.156C62.3801 110.252 61.9215 110.385 61.5481 110.556V109.276C61.9428 109.095 62.4228 108.956 62.9881 108.86C63.5641 108.753 64.1508 108.7 64.7481 108.7C66.2628 108.7 67.4308 109.063 68.2521 109.788C69.0841 110.513 69.5001 111.601 69.5001 113.052C69.5001 113.895 69.2868 114.657 68.8601 115.34C68.4335 116.012 67.8521 116.54 67.1161 116.924C66.3908 117.308 65.5908 117.5 64.7161 117.5H63.1321L61.9801 112.796ZM74.4268 117.74C73.7654 117.74 73.1254 117.66 72.5068 117.5C71.8881 117.351 71.3654 117.137 70.9388 116.86V112.604H74.4908V113.916H72.5707V116.044C73.0294 116.321 73.6481 116.46 74.4268 116.46C75.4508 116.46 76.2294 116.177 76.7628 115.612C77.3068 115.047 77.5788 114.225 77.5788 113.148C77.5788 112.071 77.3014 111.276 76.7468 110.764C76.2028 110.252 75.3068 109.996 74.0588 109.996C73.4934 109.996 72.9388 110.055 72.3948 110.172C71.8508 110.279 71.3921 110.455 71.0188 110.7V109.404C71.4348 109.169 71.9254 108.993 72.4908 108.876C73.0561 108.759 73.6641 108.7 74.3148 108.7C75.9148 108.7 77.1361 109.089 77.9788 109.868C78.8214 110.647 79.2428 111.74 79.2428 113.148C79.2428 114.567 78.8214 115.687 77.9788 116.508C77.1468 117.329 75.9628 117.74 74.4268 117.74ZM80.6888 110.012H82.3207L84.3528 116.22C85.3554 116.22 86.1288 115.943 86.6728 115.388C87.2168 114.833 87.4888 114.049 87.4888 113.036C87.4888 112.033 87.3021 111.276 86.9288 110.764C86.5554 110.252 85.9581 109.996 85.1368 109.996C84.7528 109.996 84.3794 110.044 84.0168 110.14V108.876C84.4434 108.759 84.9074 108.7 85.4088 108.7C86.6248 108.7 87.5528 109.084 88.1927 109.852C88.8328 110.62 89.1528 111.681 89.1528 113.036C89.1528 113.964 88.9501 114.764 88.5448 115.436C88.1501 116.108 87.6114 116.62 86.9288 116.972C86.2461 117.324 85.4888 117.5 84.6568 117.5H83.1208L80.6888 110.012ZM90.915 112.204C90.915 111.095 91.2777 110.236 92.003 109.628C92.7283 109.009 93.7257 108.7 94.995 108.7C96.2537 108.7 97.2457 109.004 97.971 109.612C98.6963 110.22 99.059 111.084 99.059 112.204V117.5H97.427V112.156C97.427 111.431 97.2137 110.892 96.787 110.54C96.3603 110.177 95.763 109.996 94.995 109.996C94.2163 109.996 93.6137 110.177 93.187 110.54C92.7603 110.892 92.547 111.431 92.547 112.156V113.788C92.6857 113.532 92.9043 113.329 93.203 113.18C93.5017 113.02 93.8537 112.94 94.259 112.94H95.539V114.284H94.131C93.683 114.284 93.3043 114.444 92.995 114.764C92.6963 115.073 92.547 115.431 92.547 115.836V117.5H90.915V112.204ZM104.302 117.74C103.64 117.74 103 117.66 102.382 117.5C101.763 117.351 101.24 117.137 100.814 116.86V112.604H104.366V113.916H102.446V116.044C102.904 116.321 103.523 116.46 104.302 116.46C105.326 116.46 106.104 116.177 106.638 115.612C107.182 115.047 107.454 114.225 107.454 113.148C107.454 112.071 107.176 111.276 106.622 110.764C106.078 110.252 105.182 109.996 103.934 109.996C103.368 109.996 102.814 110.055 102.27 110.172C101.726 110.279 101.267 110.455 100.894 110.7V109.404C101.31 109.169 101.8 108.993 102.366 108.876C102.931 108.759 103.539 108.7 104.19 108.7C105.79 108.7 107.011 109.089 107.854 109.868C108.696 110.647 109.118 111.74 109.118 113.148C109.118 114.567 108.696 115.687 107.854 116.508C107.022 117.329 105.838 117.74 104.302 117.74ZM113.828 117.74C113.241 117.74 112.644 117.671 112.036 117.532C111.428 117.404 110.953 117.212 110.612 116.956V115.644C111.07 115.921 111.572 116.135 112.116 116.284C112.67 116.423 113.198 116.492 113.7 116.492C114.404 116.492 114.91 116.412 115.22 116.252C115.529 116.081 115.684 115.793 115.684 115.388C115.684 115.111 115.609 114.887 115.46 114.716C115.31 114.545 115.081 114.396 114.772 114.268C114.473 114.14 113.998 113.98 113.348 113.788C112.409 113.5 111.71 113.164 111.252 112.78C110.793 112.385 110.564 111.841 110.564 111.148C110.564 110.359 110.868 109.756 111.476 109.34C112.084 108.913 112.916 108.7 113.972 108.7C114.516 108.7 115.038 108.764 115.54 108.892C116.052 109.009 116.473 109.169 116.804 109.372V110.716C116.441 110.492 116.025 110.316 115.556 110.188C115.086 110.06 114.606 109.996 114.116 109.996C112.836 109.996 112.196 110.38 112.196 111.148C112.196 111.436 112.281 111.665 112.452 111.836C112.633 112.007 112.868 112.151 113.156 112.268C113.454 112.375 113.95 112.529 114.644 112.732C115.326 112.935 115.86 113.153 116.244 113.388C116.628 113.623 116.9 113.9 117.06 114.22C117.22 114.54 117.3 114.935 117.3 115.404C117.3 116.108 117.012 116.673 116.436 117.1C115.86 117.527 114.99 117.74 113.828 117.74ZM113.152 106.764C113.152 105.932 113.605 105.516 114.512 105.516H118.048V106.588H115.152C114.96 106.588 114.826 106.625 114.752 106.7C114.677 106.775 114.64 106.908 114.64 107.1V107.676H113.152V106.764ZM121.84 117.74C120.89 117.74 120.133 117.505 119.568 117.036C119.013 116.556 118.736 115.879 118.736 115.004C118.736 114.14 119.045 113.452 119.664 112.94C120.293 112.428 121.141 112.172 122.208 112.172C123.264 112.172 124.213 112.369 125.056 112.764V112.108C125.056 111.372 124.853 110.839 124.448 110.508C124.053 110.167 123.392 109.996 122.464 109.996C121.952 109.996 121.45 110.044 120.96 110.14C120.469 110.236 120.042 110.369 119.68 110.54V109.26C120.01 109.1 120.458 108.967 121.024 108.86C121.6 108.753 122.16 108.7 122.704 108.7C123.664 108.7 124.464 108.876 125.104 109.228L125.92 108.3H127.728L126.112 110.108C126.496 110.652 126.688 111.308 126.688 112.076V117.5H125.056V114.06C124.277 113.665 123.386 113.468 122.384 113.468C121.69 113.468 121.178 113.596 120.848 113.852C120.528 114.108 120.368 114.492 120.368 115.004C120.368 115.975 120.992 116.46 122.24 116.46C122.624 116.46 122.96 116.407 123.248 116.3V117.564C122.864 117.681 122.394 117.74 121.84 117.74Z" fill="#F0F0F0"/>
<defs>
<linearGradient id="paint0_linear_209_1372" x1="0" y1="75.5357" x2="143.036" y2="75.5357" gradientUnits="userSpaceOnUse">
<stop stop-color="#2BB7BF"/>
<stop offset="1" stop-color="#2CC9C5"/>
</linearGradient>
</defs>
</svg>
