<svg width="12" height="20" viewBox="0 0 12 20" fill="none" xmlns="http://www.w3.org/2000/svg">
<path d="M0.4375 9.8916C0.4375 9.61084 0.538574 9.35254 0.751953 9.15039L9.65771 0.435547C9.84863 0.244629 10.0957 0.143555 10.3877 0.143555C10.9717 0.143555 11.4209 0.581543 11.4209 1.16553C11.4209 1.44629 11.2974 1.70459 11.1177 1.89551L2.94189 9.8916L11.1177 17.8877C11.2974 18.0786 11.4209 18.3257 11.4209 18.6177C11.4209 19.2017 10.9717 19.6396 10.3877 19.6396C10.0957 19.6396 9.84863 19.5386 9.65771 19.3364L0.751953 10.6328C0.538574 10.4194 0.4375 10.1724 0.4375 9.8916Z" fill="#2BB7BF"/>
</svg>
