<svg width="35" height="35" viewBox="0 0 35 35" fill="none" xmlns="http://www.w3.org/2000/svg">
<path d="M26.5932 34.4169C19.6496 34.4079 12.9928 31.6455 8.0829 26.7356C3.17297 21.8257 0.410612 15.169 0.401611 8.22528C0.401611 6.15037 1.22587 4.16043 2.69305 2.69325C4.16024 1.22606 6.15017 0.401806 8.22508 0.401806C8.66446 0.398459 9.1031 0.438335 9.53467 0.520858C9.95188 0.582597 10.362 0.685134 10.7592 0.826994C11.0386 0.925008 11.2875 1.09424 11.4814 1.31796C11.6753 1.54167 11.8074 1.81212 11.8647 2.10256L14.1947 12.3071C14.2575 12.5841 14.25 12.8724 14.1727 13.1457C14.0955 13.419 13.951 13.6686 13.7525 13.8718C13.5314 14.1099 13.5144 14.1269 11.4225 15.2154C13.0977 18.8905 16.037 21.8418 19.7052 23.5321C20.8107 21.4231 20.8277 21.4061 21.0658 21.185C21.2689 20.9865 21.5186 20.8421 21.7919 20.7648C22.0652 20.6876 22.3535 20.68 22.6305 20.7428L32.835 23.0729C33.1162 23.1381 33.3761 23.2738 33.5903 23.4672C33.8045 23.6606 33.966 23.9053 34.0596 24.1784C34.2031 24.582 34.3112 24.9975 34.3827 25.4199C34.4511 25.8474 34.4853 26.2796 34.4847 26.7125C34.4534 28.7785 33.606 30.7483 32.1275 32.1917C30.6489 33.6352 28.6594 34.4351 26.5932 34.4169Z" fill="#D7D7D7"/>
</svg>
